<svg xmlns="http://www.w3.org/2000/svg" width="150" height="150" fill="none" viewBox="0 0 150 150"><circle cx="74.787" cy="75.875" r="25" stroke="#8F5BFF"/><path stroke="url(#paint0_linear)" d="M100.375 75.6321L111.687 94.1738"/><circle cx="114.867" cy="100.356" r="6.5" stroke="#fff" transform="rotate(105 114.867 100.356)"/><path stroke="url(#paint1_linear)" d="M77.6145 48.6465L96.1563 37.3341"/><circle cx="102.338" cy="34.154" r="6.5" stroke="#fff" transform="rotate(15 102.338 34.1542)"/><path stroke="url(#paint2_linear)" d="M48.3691 74.489L37.0567 55.9473"/><path stroke="url(#paint3_linear)" d="M60.2034 52.4587L65.3154 31.3486"/><path stroke="url(#paint4_linear)" d="M55.3591 95.3259L34.249 90.2139"/><path stroke="url(#paint5_linear)" d="M93.7321 96.3343L88.6202 117.444"/><path stroke="url(#paint6_linear)" d="M95.9808 57.7659L117.091 62.8779"/><circle cx="33.879" cy="49.767" r="6.5" stroke="#fff" transform="rotate(-75 33.8788 49.7671)"/><circle cx="67.44" cy="24.731" r="6.5" stroke="#fff" transform="rotate(-30 67.4397 24.7307)"/><circle cx="27.633" cy="88.09" r="6.5" stroke="#fff" transform="rotate(-120 27.6331 88.0896)"/><circle cx="86.494" cy="124.06" r="6.5" stroke="#fff" transform="rotate(150 86.4939 124.06)"/><circle cx="123.705" cy="65.004" r="6.5" stroke="#fff" transform="rotate(60 123.705 65.0042)"/><path stroke="url(#paint7_linear)" d="M76.9265 103.324L58.3848 114.637"/><circle cx="52.203" cy="117.817" r="6.5" stroke="#fff" transform="rotate(-165 52.2026 117.817)"/><defs><linearGradient id="paint0_linear" x1="108.229" x2="100.316" y1="88.403" y2="75.733" gradientUnits="userSpaceOnUse"><stop stop-color="#fff"/><stop offset="1" stop-color="#fff" stop-opacity="0"/></linearGradient><linearGradient id="paint1_linear" x1="90.386" x2="77.716" y1="40.793" y2="48.706" gradientUnits="userSpaceOnUse"><stop stop-color="#fff"/><stop offset="1" stop-color="#fff" stop-opacity="0"/></linearGradient><linearGradient id="paint2_linear" x1="40.516" x2="48.428" y1="61.718" y2="74.388" gradientUnits="userSpaceOnUse"><stop stop-color="#fff"/><stop offset="1" stop-color="#fff" stop-opacity="0"/></linearGradient><linearGradient id="paint3_linear" x1="63.681" x2="60.317" y1="37.875" y2="52.429" gradientUnits="userSpaceOnUse"><stop stop-color="#fff"/><stop offset="1" stop-color="#fff" stop-opacity="0"/></linearGradient><linearGradient id="paint4_linear" x1="40.775" x2="55.329" y1="91.849" y2="95.212" gradientUnits="userSpaceOnUse"><stop stop-color="#fff"/><stop offset="1" stop-color="#fff" stop-opacity="0"/></linearGradient><linearGradient id="paint5_linear" x1="90.255" x2="93.619" y1="110.918" y2="96.364" gradientUnits="userSpaceOnUse"><stop stop-color="#fff"/><stop offset="1" stop-color="#fff" stop-opacity="0"/></linearGradient><linearGradient id="paint6_linear" x1="110.565" x2="96.011" y1="61.243" y2="57.88" gradientUnits="userSpaceOnUse"><stop stop-color="#fff"/><stop offset="1" stop-color="#fff" stop-opacity="0"/></linearGradient><linearGradient id="paint7_linear" x1="64.155" x2="76.825" y1="111.178" y2="103.265" gradientUnits="userSpaceOnUse"><stop stop-color="#fff"/><stop offset="1" stop-color="#fff" stop-opacity="0"/></linearGradient></defs></svg>